<svg xmlns="http://www.w3.org/2000/svg" viewBox="0 0 512 512" id="ai-brain"><circle cx="474.5" cy="156" r="37.5"></circle><circle cx="366" cy="101" r="27.5"></circle><circle cx="474.5" cy="356" r="37.5"></circle><circle cx="366" cy="411" r="27.5"></circle><circle cx="411" cy="256" r="47.5"></circle><path d="M308.14 248.5c.23 2.47.36 5 .36 7.5s-.13 5-.36 7.5H349a60.08 60.08 0 0 1 0-15zm63.28-100a27.33 27.33 0 0 0-21.67 10.57l-46.41 59.43h-3.89a82.67 82.67 0 0 1 5.91 15H307a7.49 7.49 0 0 0 5.91-2.88l48.66-62.31a12.42 12.42 0 0 1 9.85-4.81h51.12a52.35 52.35 0 0 1 0-15zm0 200a12.42 12.42 0 0 1-9.85-4.81l-48.66-62.31a7.49 7.49 0 0 0-5.91-2.88h-1.64a82.67 82.67 0 0 1-5.91 15h3.89l46.41 59.43a27.33 27.33 0 0 0 21.67 10.57h51.12a52.35 52.35 0 0 1 0-15zm-61.73 55a12.41 12.41 0 0 1-11.65-8l-27.29-70.27a82.1 82.1 0 0 1-13.36 7L284.05 401a27.33 27.33 0 0 0 25.64 17.55h14.49a41.7 41.7 0 0 1 0-15zM298 116.48a12.41 12.41 0 0 1 11.65-8h14.49a41.7 41.7 0 0 1 0-15h-14.45a27.33 27.33 0 0 0-25.64 17.55l-26.66 68.67a82.1 82.1 0 0 1 13.36 7zM158.5 256a67.5 67.5 0 1 0 67.5-67.5 67.58 67.58 0 0 0-67.5 67.5zm55 15a7.5 7.5 0 0 1-15 0v-30a7.5 7.5 0 0 1 15 0zm25-30a7.5 7.5 0 0 1 15 0v30a7.5 7.5 0 0 1-15 0z"></path><path d="M143.5 256a82.59 82.59 0 0 1 82.5-82.5c2.53 0 5 .13 7.5.36V121a47.5 47.5 0 0 0-93-13.48l-.46-.16v35.89a7.5 7.5 0 0 1-8.44 7.44A7.68 7.68 0 0 1 125 143v-39a69.54 69.54 0 0 0-7.5-.43A67.58 67.58 0 0 0 50 171q0 2.9.26 5.82a87.5 87.5 0 0 0 0 158.36Q50 338.11 50 341a67.58 67.58 0 0 0 67.5 67.5 69.54 69.54 0 0 0 7.5-.43v-38.89a7.68 7.68 0 0 1 6.56-7.73 7.5 7.5 0 0 1 8.44 7.44v35.75l.46-.16a47.5 47.5 0 0 0 93-13.48v-52.86c-2.47.23-5 .36-7.5.36A82.59 82.59 0 0 1 143.5 256ZM85 258.69a7.49 7.49 0 0 1-5.16 9.31 7.32 7.32 0 0 1-2.06.29 7.5 7.5 0 0 1-7.21-5.44c-3.71-13 5.33-25.17 11.84-31.91a68.15 68.15 0 0 1-9.8-25.82A7.5 7.5 0 0 1 87.46 203c.21 1.44 5.27 33.45 33.3 37.13a7.5 7.5 0 0 1-1 14.94 6.55 6.55 0 0 1-1-.07 48 48 0 0 1-26.72-12.42c-4.24 4.71-8.46 11.17-7.04 16.11Zm61.8 46.37a7.5 7.5 0 0 1-8.17 6.69 26.67 26.67 0 0 0-12.44 2.72c-8.81 4.22-15.11 12.77-18.74 25.38A7.5 7.5 0 0 1 93 335.71c9.68-33.65 35-40.16 47.1-38.89a7.49 7.49 0 0 1 6.69 8.24Z"></path></svg>